#N canvas 254 23 1026 564 10;
#X floatatom 371 129 5 0 0 0 - - -;
#X obj 374 90 hsl 200 15 0 5000 0 0 empty empty empty -2 -8 0 10 -4032
-1 -1 14100 1;
#X obj 185 171 noise~;
#X obj 117 496 outlet~;
#X obj 186 495 outlet~;
#X obj 95 193 osc~ 40;
#X floatatom 230 126 5 0 0 0 - - -;
#X obj 186 220 bob~;
#X floatatom 230 234 5 0 0 0 - - -;
#X obj 230 169 phasor~;
#X obj 230 146 sig~ 890;
#X obj 343 235 osc~ 240;
#X obj 568 210 osc~ 960;
#X obj 670 210 osc~ 1910;
#X obj 185 320 *~ 0.3;
#X obj 563 237 chorus;
#X floatatom 629 210 5 0 0 0 - - -;
#X obj 679 231 chorus;
#X floatatom 747 215 5 0 0 0 - - -;
#X obj 95 214 *~ 4;
#X obj 94 171 lfo~ 0.6 38 43;
#X obj 448 211 lfo~ 0.4 475 485;
#X obj 334 302 *~ 0.5;
#X obj 228 212 lfo~ 0.1 200 1500;
#X obj 371 109 int;
#X obj 230 191 chorus;
#X floatatom 280 169 5 0 0 0 - - -;
#X obj 370 169 / 10;
#X floatatom 369 189 5 0 0 0 - - -;
#X floatatom 427 189 5 0 0 0 - - -;
#X obj 344 212 lfo~ 0.5 235 245;
#X obj 310 405 *~;
#X obj 230 51 noise~;
#X obj 230 31 metro 250;
#X obj 230 11 tgl 15 0 empty empty empty 17 7 0 10 -262144 -1 -1 0
1;
#X obj 398 401 *~;
#X obj 428 169 / 15;
#X obj 448 237 osc~ 480;
#X connect 0 0 27 0;
#X connect 0 0 36 0;
#X connect 1 0 24 0;
#X connect 2 0 7 0;
#X connect 5 0 19 0;
#X connect 6 0 10 0;
#X connect 7 0 14 0;
#X connect 8 0 7 2;
#X connect 9 0 25 0;
#X connect 10 0 9 0;
#X connect 11 0 3 0;
#X connect 11 0 4 0;
#X connect 11 0 31 0;
#X connect 12 0 15 0;
#X connect 13 0 17 0;
#X connect 14 0 3 0;
#X connect 14 0 4 0;
#X connect 15 0 22 0;
#X connect 15 0 35 0;
#X connect 16 0 15 1;
#X connect 17 0 22 0;
#X connect 17 0 35 1;
#X connect 18 0 17 1;
#X connect 19 0 3 0;
#X connect 19 0 4 0;
#X connect 20 0 5 0;
#X connect 21 0 37 0;
#X connect 22 0 14 0;
#X connect 23 0 7 1;
#X connect 24 0 0 0;
#X connect 25 0 7 0;
#X connect 26 0 25 1;
#X connect 27 0 28 0;
#X connect 28 0 30 0;
#X connect 29 0 21 0;
#X connect 30 0 11 0;
#X connect 31 0 3 0;
#X connect 33 0 32 0;
#X connect 34 0 33 0;
#X connect 35 0 4 0;
#X connect 36 0 29 0;
#X connect 37 0 14 0;
#X connect 37 0 31 1;
