#N canvas 36 24 1174 635 10;
#X obj 196 28 digitalsensor;
#X floatatom 206 84 5 0 0 0 - - -, f 5;
#X obj 31 267 synth1;
#X obj 361 609 dac~;
#X obj 409 573 line~;
#X msg 409 553 \$1 25;
#X obj 456 533 hsl 128 15 0 127 0 0 empty empty empty -2 -8 0 10 -258113
-1 -1 3100 1;
#X obj 31 244 notesmidi;
#X obj 176 321 chorus;
#N canvas 334 148 725 489 sounds 0;
#X obj 39 84 soundfiler;
#X text 43 37 Lecture d'un fichier son stereo;
#N canvas 0 0 450 300 (subpatch) 0;
#X array snd1 24000 float 2;
#X coords 0 1 24000 -1 100 80 1 0 0;
#X restore 111 92 graph;
#N canvas 0 0 450 300 (subpatch) 0;
#X array snd2 24000 float 2;
#X coords 0 1 24000 -1 100 80 1 0 0;
#X restore 360 99 graph;
#X floatatom 39 104 9 0 0 0 - - -, f 9;
#X obj 39 125 send size;
#X obj 38 23 loadbang;
#X obj 286 96 soundfiler;
#N canvas 0 0 450 300 (subpatch) 0;
#X array sn 2960 float 2;
#X coords 0 1 2960 -1 100 80 1 0 0;
#X restore 130 305 graph;
#X floatatom 286 116 5 0 0 0 - - -, f 5;
#X obj 286 137 send size;
#X obj 285 35 loadbang;
#X obj 505 104 soundfiler;
#N canvas 0 0 450 300 (subpatch) 0;
#X array snd3 24000 float 2;
#X coords 0 1 24000 -1 100 80 1 0 0;
#X restore 582 109 graph;
#X floatatom 505 124 5 0 0 0 - - -, f 5;
#X obj 505 145 send size;
#X obj 504 43 loadbang;
#X obj 538 315 soundfiler;
#N canvas 0 0 450 300 (subpatch) 0;
#X array snd4 24000 float 2;
#X coords 0 1 24000 -1 100 80 1 0 0;
#X restore 615 320 graph;
#X floatatom 538 335 5 0 0 0 - - -, f 5;
#X obj 538 356 send size;
#X obj 537 254 loadbang;
#X text 509 57 Lecture d'un fichier son mono;
#X text 290 49 Lecture d'un fichier son mono;
#X msg 39 54 read -resize perc1.aif snd1;
#X msg 283 66 read -resize perc2.aif snd2;
#X msg 505 75 read -resize perc1.aif snd3;
#X msg 538 287 read -resize perc1.aif snd4;
#X connect 0 0 4 0;
#X connect 4 0 5 0;
#X connect 6 0 24 0;
#X connect 7 0 9 0;
#X connect 9 0 10 0;
#X connect 11 0 25 0;
#X connect 12 0 14 0;
#X connect 14 0 15 0;
#X connect 16 0 26 0;
#X connect 17 0 19 0;
#X connect 19 0 20 0;
#X connect 21 0 27 0;
#X connect 24 0 0 0;
#X connect 25 0 7 0;
#X connect 26 0 12 0;
#X connect 27 0 17 0;
#X restore 24 134 pd sounds;
#N canvas 691 70 558 437 boiterythme 0;
#X obj 60 169 bng 15 250 50 0 empty empty empty 17 7 0 10 -262144 -1
-1;
#X obj 142 169 bng 15 250 50 0 empty empty empty 17 7 0 10 -262144
-1 -1;
#X obj 222 170 bng 15 250 50 0 empty empty empty 17 7 0 10 -262144
-1 -1;
#X obj 59 294 vcf~ 6;
#X obj 74 219 osc~ 0.1;
#X obj 74 245 *~ 200;
#X obj 74 268 +~ 400;
#X obj 141 294 vcf~ 6;
#X obj 156 219 osc~ 0.1;
#X obj 221 293 vcf~ 6;
#X obj 237 218 osc~ 0.1;
#X obj 237 244 *~ 500;
#X obj 237 267 +~ 2000;
#X obj 130 22 inlet go;
#X obj 131 371 outlet~;
#X obj 221 142 sel 1 4 11 13;
#X obj 136 346 *~ 0.2;
#X obj 318 175 bng 15 250 50 0 empty empty empty 17 7 0 10 -262144
-1 -1;
#X obj 317 298 vcf~ 6;
#X obj 333 223 osc~ 0.1;
#X obj 317 147 sel 3 5 9 15;
#X obj 333 272 +~ 3000;
#X obj 333 249 *~ 600;
#X obj 161 88 counter 0 15;
#X obj 160 62 metro 250;
#X obj 154 268 +~ 2000;
#X obj 156 245 *~ 400;
#X obj 216 39 inlet tim;
#X obj 60 145 sel 0 8 10;
#X obj 59 194 tabplay~ snd1;
#X obj 142 194 tabplay~ snd2;
#X obj 237 193 tabplay~ snd3;
#X obj 319 198 tabplay~ snd4;
#X obj 141 143 sel 5 9 7;
#X connect 0 0 29 0;
#X connect 1 0 30 0;
#X connect 2 0 31 0;
#X connect 3 0 16 0;
#X connect 4 0 5 0;
#X connect 5 0 6 0;
#X connect 6 0 3 1;
#X connect 7 0 16 0;
#X connect 8 0 26 0;
#X connect 9 0 16 0;
#X connect 10 0 11 0;
#X connect 11 0 12 0;
#X connect 12 0 9 1;
#X connect 13 0 24 0;
#X connect 15 0 2 0;
#X connect 15 1 2 0;
#X connect 15 2 2 0;
#X connect 15 3 2 0;
#X connect 16 0 14 0;
#X connect 17 0 32 0;
#X connect 18 0 16 0;
#X connect 19 0 22 0;
#X connect 20 0 17 0;
#X connect 20 1 17 0;
#X connect 20 2 17 0;
#X connect 20 3 17 0;
#X connect 21 0 18 1;
#X connect 22 0 21 0;
#X connect 23 0 15 0;
#X connect 23 0 20 0;
#X connect 23 0 28 0;
#X connect 23 0 33 0;
#X connect 24 0 23 0;
#X connect 25 0 7 1;
#X connect 26 0 25 0;
#X connect 27 0 24 1;
#X connect 28 0 0 0;
#X connect 28 1 0 0;
#X connect 28 2 0 0;
#X connect 29 0 3 0;
#X connect 30 0 7 0;
#X connect 31 0 9 0;
#X connect 32 0 18 0;
#X connect 33 0 1 0;
#X connect 33 1 1 0;
#X restore 374 320 pd boiterythme;
#X obj 176 298 osc~;
#X floatatom 176 278 5 0 0 0 - - -, f 5;
#X floatatom 440 219 5 0 0 0 - - -, f 5;
#X obj 440 177 loadbang;
#X msg 440 199 1;
#X obj 415 257 /;
#X floatatom 415 277 10 0 0 0 - - -, f 10;
#X obj 403 237 f;
#X obj 403 205 t b f;
#X obj 339 509 *~ 0.1;
#X obj 382 509 *~ 0.1;
#X obj 176 255 * 3;
#X obj 32 217 tgl 15 0 empty empty empty 17 7 0 10 -4032 -1 -1 0 1
;
#X obj 356 590 *~;
#X obj 381 590 *~;
#X obj 175 364 *~ 0.05;
#X obj 415 297 * 5000;
#X obj 632 341 drone1;
#X obj 82 224 * 2;
#X floatatom 209 297 5 0 0 0 - - -, f 5;
#X obj 524 208 tgl 15 0 empty empty empty 17 7 0 10 -4032 -1 -1 0 1
;
#N canvas 0 23 987 591 boiterythme2 0;
#X obj 60 169 bng 15 250 50 0 empty empty empty 17 7 0 10 -262144 -1
-1;
#X obj 273 169 bng 15 250 50 0 empty empty empty 17 7 0 10 -262144
-1 -1;
#X obj 353 170 bng 15 250 50 0 empty empty empty 17 7 0 10 -262144
-1 -1;
#X obj 55 412 vcf~ 6;
#X obj 82 330 osc~ 0.1;
#X obj 70 363 *~ 200;
#X obj 70 386 +~ 400;
#X obj 268 412 vcf~ 6;
#X obj 279 330 osc~ 0.1;
#X obj 348 411 vcf~ 6;
#X obj 364 336 osc~ 0.1;
#X obj 364 362 *~ 500;
#X obj 364 385 +~ 2000;
#X obj 261 22 inlet go;
#X obj 127 489 outlet~;
#X obj 352 142 sel 1 4 11 13;
#X obj 449 175 bng 15 250 50 0 empty empty empty 17 7 0 10 -262144
-1 -1;
#X obj 444 416 vcf~ 6;
#X obj 460 341 osc~ 0.1;
#X obj 448 147 sel 3 5 9 15;
#X obj 460 390 +~ 3000;
#X obj 460 367 *~ 600;
#X obj 292 88 counter 0 15;
#X obj 291 62 metro 250;
#X obj 281 386 +~ 2000;
#X obj 283 363 *~ 400;
#X obj 347 39 inlet tim;
#X obj 60 145 sel 0 8 10;
#X obj 467 248 osc~ 450;
#X msg 344 224 400;
#X obj 560 205 tgl 15 0 empty empty empty 17 7 0 10 -4032 -1 -1 0 1
;
#X obj 536 269 line~;
#X text 544 184 On/Off;
#X msg 49 216 300;
#X obj 466 276 *~;
#X obj 132 464 *~ 0.5;
#X msg 545 248 \$1 100;
#X obj 420 216 tgl 15 0 empty empty empty 17 7 0 10 -4032 -1 -1 0 1
;
#X obj 396 280 line~;
#X text 404 195 On/Off;
#X msg 405 259 \$1 100;
#X obj 349 287 *~;
#X obj 311 208 tgl 15 0 empty empty empty 17 7 0 10 -4032 -1 -1 1 1
;
#X obj 287 272 line~;
#X msg 296 251 \$1 100;
#X obj 254 288 *~;
#X obj 272 143 sel 2 6 11;
#X obj 228 245 osc~ 340;
#X obj 143 223 tgl 15 0 empty empty empty 17 7 0 10 -4032 -1 -1 0 1
;
#X obj 119 287 line~;
#X msg 128 266 \$1 100;
#X obj 49 320 *~;
#X obj 343 249 osc~ 400;
#X obj 53 268 osc~ 300;
#X connect 0 0 48 0;
#X connect 1 0 42 0;
#X connect 2 0 37 0;
#X connect 3 0 35 0;
#X connect 4 0 5 0;
#X connect 5 0 6 0;
#X connect 6 0 3 1;
#X connect 7 0 35 0;
#X connect 8 0 25 0;
#X connect 9 0 35 0;
#X connect 10 0 11 0;
#X connect 11 0 12 0;
#X connect 12 0 9 1;
#X connect 13 0 23 0;
#X connect 15 0 2 0;
#X connect 15 1 2 0;
#X connect 15 2 2 0;
#X connect 15 3 2 0;
#X connect 16 0 30 0;
#X connect 17 0 35 0;
#X connect 18 0 21 0;
#X connect 19 0 16 0;
#X connect 19 1 16 0;
#X connect 19 2 16 0;
#X connect 19 3 16 0;
#X connect 20 0 17 1;
#X connect 21 0 20 0;
#X connect 22 0 15 0;
#X connect 22 0 19 0;
#X connect 22 0 27 0;
#X connect 22 0 46 0;
#X connect 23 0 22 0;
#X connect 24 0 7 1;
#X connect 25 0 24 0;
#X connect 26 0 23 1;
#X connect 27 0 0 0;
#X connect 27 1 0 0;
#X connect 27 2 0 0;
#X connect 28 0 34 0;
#X connect 29 0 52 0;
#X connect 30 0 36 0;
#X connect 31 0 34 1;
#X connect 33 0 53 0;
#X connect 34 0 17 0;
#X connect 35 0 14 0;
#X connect 36 0 31 0;
#X connect 37 0 40 0;
#X connect 38 0 41 1;
#X connect 40 0 38 0;
#X connect 41 0 9 0;
#X connect 42 0 44 0;
#X connect 43 0 45 1;
#X connect 44 0 43 0;
#X connect 45 0 7 0;
#X connect 46 0 1 0;
#X connect 46 1 1 0;
#X connect 46 2 1 0;
#X connect 47 0 45 0;
#X connect 48 0 50 0;
#X connect 49 0 51 1;
#X connect 50 0 49 0;
#X connect 51 0 3 0;
#X connect 52 0 41 0;
#X connect 53 0 51 0;
#X restore 524 249 pd boiterythme2;
#X obj 861 80 tgl 15 0 empty empty empty 17 7 0 10 -262144 -1 -1 0
1;
#X obj 861 100 metro;
#X floatatom 892 76 7 0 0 0 - - -, f 7;
#X obj 861 121 f;
#X obj 861 169 hradio 16 1 0 4 empty empty empty 0 -8 0 10 -262144
-1 -1 1;
#X obj 910 123 + 1;
#X obj 866 232 tgl 15 0 empty empty empty 17 7 0 10 -262144 -1 -1 1
1;
#X obj 844 232 tgl 15 0 empty empty empty 17 7 0 10 -262144 -1 -1 0
1;
#X obj 909 232 tgl 15 0 empty empty empty 17 7 0 10 -262144 -1 -1 0
1;
#X obj 887 232 tgl 15 0 empty empty empty 17 7 0 10 -262144 -1 -1 0
1;
#X obj 860 196 sel 0 1 2 3;
#X obj 861 143 mod 4;
#X obj 991 80 tgl 15 0 empty empty empty 17 7 0 10 -262144 -1 -1 0
1;
#X obj 991 100 metro;
#X floatatom 1018 78 5 0 0 0 - - -, f 5;
#X obj 991 121 f;
#X obj 991 169 hradio 16 1 0 4 empty empty empty 0 -8 0 10 -262144
-1 -1 1;
#X obj 1040 123 + 1;
#X obj 996 232 tgl 15 0 empty empty empty 17 7 0 10 -262144 -1 -1 1
1;
#X obj 974 232 tgl 15 0 empty empty empty 17 7 0 10 -262144 -1 -1 0
1;
#X obj 1039 232 tgl 15 0 empty empty empty 17 7 0 10 -262144 -1 -1
0 1;
#X obj 1017 232 tgl 15 0 empty empty empty 17 7 0 10 -262144 -1 -1
0 1;
#X obj 990 196 sel 0 1 2 3;
#X obj 991 143 mod 4;
#X msg 891 60 300000;
#X obj 710 318 tgl 15 0 empty empty empty 17 7 0 10 -4032 -1 -1 0 1
;
#X obj 686 364 line~;
#X obj 622 384 *~;
#X obj 671 386 *~;
#X msg 695 343 \$1 1000;
#X obj 638 207 tgl 15 0 empty empty empty 17 7 0 10 -4032 -1 -1 0 1
;
#X obj 629 250 line~;
#X obj 511 329 *~;
#X obj 546 330 *~;
#X msg 638 229 \$1 1000;
#X msg 1018 57 5000;
#X obj 101 275 tgl 15 0 empty empty empty 17 7 0 10 -4032 -1 -1 0 1
;
#X obj 77 321 line~;
#X obj 29 351 *~;
#X obj 64 352 *~;
#X msg 86 300 \$1 1000;
#X text 911 41 séquence 4 pas;
#X text 634 314 Drone;
#X text 642 183 On/Off;
#X text 694 297 On/Off;
#X text 99 254 On/Off;
#X text 142 232 Simple Oscillateur;
#X text 31 180 Synthé Controllé en midi;
#X floatatom 317 52 5 0 0 0 - - -, f 5;
#X floatatom 432 50 5 0 0 0 - - -, f 5;
#X floatatom 549 49 5 0 0 0 - - -, f 5;
#X obj 292 29 digitalsensor;
#X obj 382 29 digitalsensor;
#X obj 474 29 digitalsensor;
#X text 9 19 Prototype pour instalation avec 4 sensors ultrasons;
#X text 383 156 Échantilloneur;
#X obj 252 300 tgl 15 0 empty empty empty 17 7 0 10 -4032 -1 -1 0 1
;
#X obj 230 342 line~;
#X text 265 280 On/Off;
#X obj 176 344 *~;
#X msg 233 324 \$1 100;
#X obj 372 285 tgl 15 0 empty empty empty 17 7 0 10 -4032 -1 -1 0 1
;
#X text 593 49 0 à 500;
#X floatatom 574 147 5 0 0 0 - - -, f 5;
#X text 498 182 Boite à rythme pour osc;
#X obj 622 452 *~ 0.1;
#X obj 671 456 *~ 0.1;
#X obj 808 343 drone2;
#X obj 898 316 tgl 15 0 empty empty empty 17 7 0 10 -4032 -1 -1 0 1
;
#X obj 874 362 line~;
#X msg 883 341 \$1 1000;
#X obj 799 392 *~;
#X obj 833 390 *~;
#X connect 0 0 1 0;
#X connect 1 0 19 0;
#X connect 1 0 22 0;
#X connect 1 0 29 0;
#X connect 1 0 96 0;
#X connect 1 0 28 0;
#X connect 2 0 71 0;
#X connect 2 1 72 0;
#X connect 4 0 25 1;
#X connect 4 0 24 1;
#X connect 5 0 4 0;
#X connect 6 0 5 0;
#X connect 7 0 2 0;
#X connect 7 1 2 1;
#X connect 8 0 92 0;
#X connect 10 0 20 0;
#X connect 10 0 21 0;
#X connect 11 0 8 0;
#X connect 12 0 11 0;
#X connect 13 0 18 0;
#X connect 14 0 15 0;
#X connect 15 0 13 0;
#X connect 16 0 17 0;
#X connect 17 0 27 0;
#X connect 18 0 16 0;
#X connect 19 0 18 0;
#X connect 19 1 16 1;
#X connect 20 0 24 0;
#X connect 21 0 25 0;
#X connect 22 0 12 0;
#X connect 23 0 7 0;
#X connect 24 0 3 0;
#X connect 25 0 3 1;
#X connect 26 0 20 0;
#X connect 26 0 21 0;
#X connect 27 0 10 1;
#X connect 28 0 60 0;
#X connect 28 1 61 0;
#X connect 29 0 7 1;
#X connect 30 0 8 1;
#X connect 31 0 32 0;
#X connect 32 0 65 0;
#X connect 32 0 66 0;
#X connect 33 0 34 0;
#X connect 34 0 36 0;
#X connect 35 0 34 1;
#X connect 36 0 38 0;
#X connect 36 0 44 0;
#X connect 37 0 43 0;
#X connect 38 0 36 1;
#X connect 43 0 40 0;
#X connect 43 0 41 0;
#X connect 43 1 39 0;
#X connect 43 1 40 0;
#X connect 43 2 39 0;
#X connect 43 2 42 0;
#X connect 43 3 42 0;
#X connect 43 3 41 0;
#X connect 44 0 37 0;
#X connect 45 0 46 0;
#X connect 46 0 48 0;
#X connect 47 0 46 1;
#X connect 48 0 50 0;
#X connect 48 0 56 0;
#X connect 49 0 55 0;
#X connect 50 0 48 1;
#X connect 52 0 58 0;
#X connect 53 0 58 0;
#X connect 55 0 52 0;
#X connect 55 0 53 0;
#X connect 55 1 51 0;
#X connect 55 1 52 0;
#X connect 55 2 51 0;
#X connect 55 2 54 0;
#X connect 55 3 54 0;
#X connect 55 3 53 0;
#X connect 56 0 49 0;
#X connect 57 0 35 0;
#X connect 58 0 62 0;
#X connect 59 0 60 1;
#X connect 59 0 61 1;
#X connect 60 0 98 0;
#X connect 61 0 99 0;
#X connect 62 0 59 0;
#X connect 63 0 67 0;
#X connect 64 0 66 1;
#X connect 64 0 65 1;
#X connect 65 0 20 0;
#X connect 66 0 21 0;
#X connect 67 0 64 0;
#X connect 68 0 47 0;
#X connect 69 0 73 0;
#X connect 70 0 72 1;
#X connect 70 0 71 1;
#X connect 71 0 20 0;
#X connect 72 0 21 0;
#X connect 73 0 70 0;
#X connect 84 1 81 0;
#X connect 85 2 82 0;
#X connect 86 3 83 0;
#X connect 89 0 93 0;
#X connect 90 0 92 1;
#X connect 92 0 26 0;
#X connect 93 0 90 0;
#X connect 94 0 10 0;
#X connect 96 0 32 1;
#X connect 98 0 20 0;
#X connect 99 0 21 0;
#X connect 100 0 104 0;
#X connect 100 1 105 0;
#X connect 101 0 103 0;
#X connect 102 0 105 1;
#X connect 102 0 104 1;
#X connect 103 0 102 0;
#X connect 104 0 98 0;
#X connect 105 0 99 0;
