#N canvas 0 23 912 509 10;
#X obj 209 122 loadbang;
#X obj 67 241 funbuff;
#C restore;
#X obj 67 41 metro 125;
#X obj 67 63 counter 0 7;
#X floatatom 67 270 5 0 0 0 - - -, f 5;
#X obj 67 313 makenote 100 250;
#X obj 99 109 sel 0;
#X obj 67 85 t f f;
#X obj 99 131 counter 0 7;
#X obj 99 153 sel 0 2 4 6;
#X obj 67 175 t f f;
#X obj 131 245 sel 0 4;
#X msg 177 274 80;
#X msg 131 274 120;
#X obj 67 335 outlet note;
#X obj 160 336 outlet vel;
#X obj 65 18 inlet go;
#X obj 167 23 inlet time;
#X msg 211 201 0 61 \, 1 49 \, 2 54 \, 3 54 \, 4 56 \, 5 49 \, 6 58
\, 7 51;
#X msg 210 223 0 54 \, 1 54 \, 2 49 \, 3 51 \, 4 61 \, 5 49 \, 6 56
\, 7 51;
#X msg 211 180 0 48 \, 1 58 \, 2 51 \, 3 54 \, 4 68 \, 5 46 \, 6 54
\, 7 49;
#X connect 0 0 20 0;
#X connect 1 0 4 0;
#X connect 2 0 3 0;
#X connect 3 0 7 0;
#X connect 3 1 7 0;
#X connect 3 2 7 0;
#X connect 3 3 7 0;
#X connect 4 0 5 0;
#X connect 5 0 14 0;
#X connect 5 1 15 0;
#X connect 6 0 8 0;
#X connect 7 0 10 0;
#X connect 7 1 6 0;
#X connect 8 0 9 0;
#X connect 9 1 20 0;
#X connect 9 2 18 0;
#X connect 9 3 19 0;
#X connect 10 0 1 0;
#X connect 10 1 11 0;
#X connect 11 0 13 0;
#X connect 11 1 13 0;
#X connect 11 2 12 0;
#X connect 12 0 5 1;
#X connect 13 0 5 1;
#X connect 16 0 2 0;
#X connect 17 0 2 1;
#X connect 18 0 1 0;
#X connect 19 0 1 0;
#X connect 20 0 1 0;
